<svg width="28" height="28" viewBox="0 0 28 28" fill="none" xmlns="http://www.w3.org/2000/svg">      <path d="M14.96 12.4356C15.4151 11.7244 16.2293 10.7307 18.0516 10.7307C20.3076 10.7307 22 12.2044 22 15.3742V21.2889H18.5707V15.7778C18.5707 14.3911 18.0747 13.4436 16.8338 13.4436C15.8862 13.4436 15.3227 14.0818 15.0738 14.6987C14.9856 14.968 14.9471 15.2511 14.96 15.5342V21.2889H11.5289C11.5289 21.2889 11.5751 11.9413 11.5289 10.9778H14.96V12.4356ZM7.94133 6C6.768 6 6 6.76978 6 7.77778C6 8.78578 6.74489 9.55556 7.89511 9.55556H7.91822C9.11467 9.55556 9.85956 8.76267 9.85956 7.77778C9.85956 6.79289 9.11467 6 7.94133 6ZM6.20444 21.2889H9.63378V10.9778H6.20444V21.2889Z" fill="currentColor"/>    </svg>