<svg width="28" height="28" viewBox="0 0 28 28" fill="none" xmlns="http://www.w3.org/2000/svg">      <path d="M21.68 10.7286C22 11.9386 22 14.5 22 14.5C22 14.5 22 17.0614 21.68 18.2714C21.5909 18.6122 21.4103 18.9233 21.157 19.1721C20.9037 19.4208 20.587 19.5982 20.24 19.6857C19.008 20 14 20 14 20C14 20 8.992 20 7.76 19.6857C7.41301 19.5982 7.09631 19.4208 6.843 19.1721C6.58968 18.9233 6.40906 18.6122 6.32 18.2714C6 17.0614 6 14.5 6 14.5C6 14.5 6 11.9386 6.32 10.7286C6.512 10.0371 7.056 9.50286 7.76 9.31429C8.992 9 14 9 14 9C14 9 19.008 9 20.24 9.31429C20.944 9.50286 21.488 10.0371 21.68 10.7286ZM12.4 16.8571L16.56 14.5L12.4 12.1429V16.8571Z" fill="currentColor"/>    </svg>