<svg class="icon-tap " aria-hidden="true" focusable="false" role="presentation" xmlns="http://www.w3.org/2000/svg" width="17" height="18" fill="none">      <g clip-path="url(#clip0)">        <path d="M10.5041 5.68411c.3161-.69947.3733-1.48877.1212-2.24947C10.1368 1.96048 8.60378.947266 6.86197.947266c-1.7418 0-3.27478 1.013214-3.76334 2.487374-.25211.7607-.19492 1.55.12117 2.24947" stroke="currentColor" stroke-width="1.18421" stroke-linecap="round" stroke-linejoin="round"/>        <path d="M1.29826 12.9496l.4482-.3869-.00078-.0009-.44742.3878zm2.1109-1.6885l.44817-.387-.00075-.0009-.44742.3879zm2.14476 2.484l-.44817.387c.16167.1872.42273.2542.6546.168.23187-.0863.38567-.3076.38567-.555h-.5921zm2.745-2.9235h-.59211c0 .327.26509.5921.59211.5921v-.5921zm-1.6868 7.3776l-4.86566-5.6365-.896406.7738L5.71571 18.973l.89641-.7738zm-4.86644-5.6374c-.26238-.3027-.22472-.749.09904-1.008l-.73973-.9248c-.84206.6736-.962533 1.8912-.254153 2.7084l.894843-.7756zm.09904-1.008c.33763-.2701.84237-.2218 1.11702.0951l.89484-.7757c-.69611-.8031-1.92341-.90664-2.75159-.2442l.73973.9248zm1.11627.0942l2.14476 2.4841.89634-.7739-2.14476-2.4841-.89634.7739zm3.18503 2.0971V5.10805H4.96181v8.63705h1.18421zm0-8.63705c0-.379.32677-.72639.7804-.72639V3.19745c-1.0624 0-1.96461.83323-1.96461 1.9106h1.18421zm.7804-.72639c.45362 0 .78039.34739.78039.72639h1.18421c0-1.07737-.90221-1.9106-1.9646-1.9106v1.18421zm.78039.72639v5.71355h1.18421V5.10805H7.70681zm.59211 6.30565H11.273v-1.1842H8.29892v1.1842zm2.97408 0c1.717 0 3.0679 1.3312 3.0679 2.9239h1.1842c0-2.2911-1.9264-4.1081-4.2521-4.1081v1.1842zm3.0679 2.9239v4.6098h1.1842v-4.6098h-1.1842z" fill="currentColor"/>      </g>      <defs>        <clipPath id="clip0">          <path fill="#fff" d="M0 0h16.6645v18H0z"/>        </clipPath>      </defs>    </svg>