<svg width="28" height="28" viewBox="0 0 28 28" fill="none" xmlns="http://www.w3.org/2000/svg">      <path fill-rule="evenodd" clip-rule="evenodd" d="M11.1213 6.00507C10.5981 6.02559 9.96558 6.0872 9.6431 6.14903C7.77505 6.50724 6.50522 7.77703 6.14804 9.644C6.0118 10.3562 6 10.7031 6 14.0006C6 17.298 6.0118 17.6449 6.14804 18.3572C6.50522 20.2241 7.776 21.4948 9.6431 21.852C10.3554 21.9882 10.7023 22 14 22C17.2977 22 17.6446 21.9882 18.3569 21.852C20.224 21.4948 21.4948 20.2241 21.852 18.3572C21.9882 17.6449 22 17.298 22 14.0006C22 10.7031 21.9882 10.3562 21.852 9.644C21.4935 7.77016 20.2144 6.49675 18.3396 6.14716C17.6551 6.01955 17.3874 6.00985 14.334 6.00234C12.707 5.99836 11.2612 5.99957 11.1213 6.00507ZM17.6262 7.50836C18.2783 7.59344 18.7654 7.73848 19.1427 7.95992C19.3813 8.09994 19.9011 8.61966 20.0411 8.85821C20.2728 9.253 20.4142 9.74012 20.4952 10.4223C20.5551 10.9261 20.5551 17.075 20.4952 17.5789C20.4142 18.261 20.2728 18.7482 20.0411 19.143C19.9011 19.3815 19.3813 19.9012 19.1427 20.0412C18.7479 20.2729 18.2608 20.4143 17.5785 20.4953C17.0747 20.5552 10.9253 20.5552 10.4215 20.4953C9.73923 20.4143 9.25207 20.2729 8.85726 20.0412C8.61869 19.9012 8.09893 19.3815 7.9589 19.143C7.72724 18.7482 7.58578 18.261 7.50476 17.5789C7.44493 17.075 7.44493 10.9261 7.50476 10.4223C7.56313 9.93096 7.62729 9.63856 7.74686 9.31938C7.88402 8.95319 8.02204 8.72965 8.28724 8.44428C8.87822 7.8083 9.55222 7.55184 10.8191 7.48098C11.5114 7.44227 17.2981 7.46552 17.6262 7.50836ZM17.9602 8.80646C17.7222 8.8876 17.4343 9.18659 17.358 9.43194C17.1268 10.175 17.8258 10.874 18.569 10.6429C18.8334 10.5606 19.1165 10.2776 19.1987 10.013C19.2689 9.78758 19.251 9.52441 19.1511 9.31187C19.071 9.14148 18.8248 8.90306 18.6554 8.83162C18.4699 8.75347 18.1498 8.74189 17.9602 8.80646ZM13.6183 9.8962C12.6459 9.99712 11.7694 10.4112 11.0899 11.0907C9.99978 12.1807 9.61075 13.7764 10.076 15.2492C10.4746 16.5107 11.4897 17.5257 12.7513 17.9243C13.5638 18.1809 14.4362 18.1809 15.2487 17.9243C16.5103 17.5257 17.5254 16.5107 17.924 15.2492C18.1806 14.4367 18.1806 13.5644 17.924 12.752C17.5254 11.4904 16.5103 10.4754 15.2487 10.0769C14.7428 9.91709 14.1016 9.84604 13.6183 9.8962ZM14.6362 11.4119C14.9255 11.4811 15.4416 11.7393 15.6794 11.9337C15.9731 12.1738 16.2113 12.4794 16.3856 12.8396C16.5969 13.2766 16.6509 13.5128 16.6509 14.0006C16.6509 14.4884 16.5969 14.7246 16.3856 15.1615C16.1137 15.7235 15.7253 16.1118 15.161 16.3855C14.7247 16.5972 14.4883 16.6513 14 16.6513C13.5117 16.6513 13.2753 16.5972 12.839 16.3855C12.2747 16.1118 11.8863 15.7235 11.6144 15.1615C11.5298 14.9866 11.4355 14.7433 11.4049 14.6208C11.3288 14.3169 11.3288 13.6843 11.4049 13.3803C11.482 13.0724 11.7369 12.5611 11.933 12.3213C12.3447 11.8177 12.9934 11.449 13.6224 11.3611C13.8845 11.3244 14.3734 11.3489 14.6362 11.4119Z" fill="currentColor"/>    </svg>