<svg class="icon-zoom " aria-hidden="true" focusable="false" role="presentation" xmlns="http://www.w3.org/2000/svg" width="13" height="14" viewBox="0 0 13 14" fill="none">      <path fill-rule="evenodd" clip-rule="evenodd" d="M10.6499 5.36407C10.6499 6.71985 10.1504 7.95819 9.32715 8.90259L12.5762 12.6036L11.4233 13.6685L8.13379 9.92206C7.31836 10.433 6.35596 10.7281 5.3252 10.7281C2.38428 10.7281 0 8.3266 0 5.36407C0 2.40155 2.38428 0 5.3252 0C8.26611 0 10.6499 2.40155 10.6499 5.36407ZM9.29102 5.36407C9.29102 7.57068 7.51514 9.35956 5.32471 9.35956C3.13428 9.35956 1.3584 7.57068 1.3584 5.36407C1.3584 3.15741 3.13428 1.36859 5.32471 1.36859C7.51514 1.36859 9.29102 3.15741 9.29102 5.36407ZM4.9502 3.23438H5.80029V4.93439H7.5V5.78436H5.80029V7.48438H4.9502V5.78436H3.25V4.93439H4.9502V3.23438Z" transform="translate(0 0.015625)" fill="currentColor"/>    </svg>