<svg width="28" height="28" viewBox="0 0 28 28" fill="none" xmlns="http://www.w3.org/2000/svg">      <path fill-rule="evenodd" clip-rule="evenodd" d="M13.591 6.00441C11.5868 6.11515 9.75158 6.92966 8.34448 8.333C7.44444 9.23064 6.78641 10.2982 6.39238 11.5002C6.01229 12.6596 5.90552 13.9193 6.08439 15.1343C6.18456 15.8146 6.36736 16.4631 6.63981 17.1046C6.71166 17.2738 6.89438 17.6476 6.98704 17.815C7.22995 18.2538 7.52906 18.6904 7.84853 19.0725C8.16302 19.4486 8.56717 19.8479 8.94482 20.1556C9.6776 20.7526 10.5183 21.2186 11.4085 21.5211C11.8412 21.6681 12.259 21.7723 12.7342 21.8517L12.751 21.8545V19.0664V16.2783H11.7348H10.7186V15.1231V13.9678H11.7344H12.7503L12.7531 12.9265C12.756 11.8203 12.7553 11.845 12.7927 11.5862C12.9306 10.6339 13.3874 9.91646 14.1198 9.50212C14.4564 9.31168 14.8782 9.18341 15.331 9.13374C15.791 9.0833 16.55 9.12126 17.351 9.23478C17.4659 9.25105 17.5612 9.26437 17.5629 9.26437C17.5646 9.26437 17.566 9.70662 17.566 10.2472V11.2299L16.9679 11.233C16.3284 11.2363 16.299 11.2379 16.1298 11.2771C15.6926 11.3785 15.4015 11.6608 15.2983 12.0834C15.2566 12.2542 15.256 12.2685 15.256 13.1531V13.9678H16.3622C17.3606 13.9678 17.4685 13.9689 17.4685 13.9795C17.4685 13.9921 17.1263 16.2236 17.1191 16.2578L17.1148 16.2783H16.1854H15.256V19.0647V21.8511L15.2954 21.8459C15.4396 21.8271 15.8337 21.7432 16.0548 21.6844C16.5933 21.5411 17.079 21.3576 17.581 21.1076C19.3154 20.2441 20.6895 18.7615 21.4192 16.9663C21.7498 16.153 21.936 15.3195 21.9915 14.4052C22.0028 14.2197 22.0028 13.7268 21.9916 13.5415C21.9403 12.6947 21.7817 11.9389 21.4942 11.1712C20.8665 9.49533 19.6589 8.05123 18.1135 7.12853C17.7376 6.90413 17.2813 6.68103 16.8985 6.53456C16.1262 6.23908 15.3815 6.07432 14.5323 6.01114C14.3897 6.00053 13.7447 5.99591 13.591 6.00441Z" fill="currentColor"/>    </svg>