<svg width="28" height="28" viewBox="0 0 28 28" fill="none" xmlns="http://www.w3.org/2000/svg">      <path d="M13.9997 6.01021C16.1242 6.01973 18.1595 6.86492 19.6658 8.36307C20.9047 9.6169 21.6999 11.2412 21.9305 12.9887C22.1611 14.7362 21.8143 16.5112 20.9431 18.0434C20.2428 19.2642 19.2311 20.2773 18.0112 20.9792C16.7914 21.681 15.4071 22.0466 13.9997 22.0385C13.2304 22.0438 12.4641 21.9404 11.7237 21.7312C12.127 21.0781 12.3959 20.4923 12.54 20.0025L13.1066 17.8033C13.2411 18.0722 13.5003 18.3027 13.8749 18.5044C14.259 18.6965 14.6432 18.8021 15.0657 18.8021C15.9012 18.8021 16.6503 18.562 17.3129 18.0818C17.9941 17.577 18.5252 16.8965 18.8495 16.1131C19.2205 15.2222 19.4036 14.2642 19.3873 13.2993C19.3873 12.0508 18.9071 10.9848 17.9564 10.0725C17.4691 9.61366 16.8957 9.25603 16.2693 9.0203C15.6429 8.78457 14.9759 8.67543 14.307 8.6992C13.4139 8.6992 12.5784 8.85285 11.8293 9.16017C10.8999 9.51337 10.0962 10.1345 9.52005 10.9449C8.94391 11.7552 8.62125 12.7183 8.59295 13.7122C8.59295 14.4325 8.7274 15.0663 9.0059 15.6137C9.2748 16.1515 9.67815 16.5357 10.2255 16.7662C10.3216 16.8046 10.408 16.8046 10.4752 16.7662C10.5425 16.7373 10.5905 16.6701 10.6193 16.5741L10.7922 15.921C10.8402 15.777 10.8114 15.6329 10.6865 15.4889C10.312 15.0555 10.1163 14.4959 10.1391 13.9235C10.1307 13.4044 10.2287 12.889 10.427 12.4092C10.6254 11.9294 10.9198 11.4953 11.2923 11.1336C11.6648 10.7719 12.1074 10.4903 12.5929 10.3061C13.0783 10.122 13.5963 10.0392 14.115 10.0629C15.1618 10.0629 15.9781 10.351 16.5543 10.9176C17.1401 11.4938 17.4378 12.2333 17.4378 13.1456C17.4378 13.9139 17.3321 14.6246 17.1209 15.268C16.9511 15.8502 16.645 16.3836 16.2277 16.8238C15.8436 17.2079 15.3922 17.4 14.8833 17.4C14.4703 17.4 14.1342 17.2559 13.8653 16.9486C13.606 16.6413 13.5196 16.2764 13.6156 15.8634C13.7622 15.3501 13.9127 14.8379 14.067 14.3269L14.2398 13.6258C14.2974 13.3761 14.3262 13.1744 14.3262 13.0016C14.3262 12.6558 14.2302 12.3677 14.0574 12.1469C13.8653 11.926 13.606 11.8107 13.2603 11.8107C12.8281 11.8107 12.4632 12.0028 12.1751 12.4062C11.887 12.7999 11.7333 13.2993 11.7333 13.9043C11.7381 14.2788 11.7963 14.6507 11.9062 15.0087L11.9638 15.1528C11.3876 17.6305 11.0514 19.0902 10.9266 19.5128C10.8114 20.041 10.7729 20.6652 10.8018 21.3758C9.37761 20.7455 8.16639 19.7163 7.31433 18.4127C6.46226 17.109 6.00578 15.5866 6 14.0291C6 11.8203 6.77788 9.91884 8.34326 8.36307C9.07486 7.60398 9.95418 7.00276 10.927 6.59645C11.8998 6.19014 12.9455 5.98736 13.9997 6.00061V6.01021Z" fill="currentColor"/>    </svg>