<svg width="28" height="28" viewBox="0 0 28 28" fill="none" xmlns="http://www.w3.org/2000/svg">      <path fill-rule="evenodd" clip-rule="evenodd" d="M16.7107 8.01016C16.0674 8.08828 15.4592 8.34677 14.9808 8.74546C14.3619 9.26117 13.9733 9.932 13.8282 10.735C13.7732 11.0393 13.7814 11.5765 13.8457 11.8826C13.8581 11.9415 13.8648 11.9931 13.8606 11.9973C13.8565 12.0014 13.7526 11.9967 13.6299 11.9867C11.6498 11.8255 9.86436 11.0998 8.32993 9.83247C8.08976 9.63411 7.46709 9.0206 7.25993 8.77819C7.17962 8.68424 7.10806 8.60502 7.10087 8.60215C7.07841 8.59318 6.89133 8.99533 6.82319 9.19908C6.5182 10.1109 6.62714 11.0997 7.12305 11.9207C7.35156 12.299 7.6175 12.5843 8.04875 12.914L8.09561 12.9498L7.96283 12.9404C7.56691 12.9125 7.16242 12.8032 6.79124 12.6238C6.70962 12.5844 6.63644 12.5494 6.62862 12.546C6.60958 12.5379 6.62905 12.8651 6.6599 13.0716C6.85098 14.351 7.82335 15.4305 9.06804 15.7452C9.14752 15.7653 9.21253 15.786 9.21253 15.7913C9.21253 15.8015 9.03887 15.8403 8.86887 15.8681C8.81302 15.8773 8.65134 15.8888 8.50958 15.8937C8.27595 15.9018 8.16933 15.8959 7.85692 15.8577L7.77444 15.8476L7.81534 15.9624C7.88056 16.1455 8.04381 16.4672 8.16129 16.6441C8.72962 17.4998 9.64218 18.0285 10.6963 18.1127L10.8288 18.1233L10.7744 18.169C10.6906 18.2393 10.2073 18.5566 10.0342 18.6548C9.24773 19.1015 8.37784 19.377 7.42859 19.4803C7.13755 19.512 6.46302 19.5159 6.19231 19.4876C6.09057 19.4769 6.00412 19.4714 6.0002 19.4753C5.99011 19.4853 6.36772 19.7084 6.62722 19.8458C7.55676 20.3377 8.59674 20.68 9.63431 20.8355C10.3733 20.9463 11.2677 20.9669 12.04 20.8911C14.1558 20.6832 16.0078 19.839 17.4899 18.4067C19.0217 16.9265 20.0398 14.8743 20.31 12.7228C20.3571 12.3475 20.3722 12.092 20.3731 11.6571L20.3739 11.2127L20.4579 11.1524C20.7159 10.9673 21.1178 10.6063 21.3633 10.3394C21.6026 10.0792 22.0329 9.53139 21.998 9.53139C21.9933 9.53139 21.8754 9.5763 21.7362 9.6312C21.4534 9.74268 21.2125 9.81851 20.8927 9.8968C20.6687 9.95158 20.2052 10.0345 20.1763 10.025C20.1672 10.022 20.208 9.98764 20.2669 9.94871C20.7209 9.64839 21.1173 9.20076 21.3654 8.70831C21.4639 8.5128 21.5639 8.2633 21.5495 8.24903C21.5445 8.24406 21.4849 8.27187 21.4169 8.31084C20.9381 8.58539 20.2815 8.83829 19.6928 8.97486L19.4783 9.02465L19.3156 8.87036C18.8586 8.43683 18.259 8.14443 17.5951 8.03122C17.4261 8.0024 16.8815 7.98943 16.7107 8.01016Z" fill="currentColor"/>    </svg>